PathFileType	4	(X/Y/Z)	OpenSim_Sub03_EMGBaseline_Magnet.trc
DataRate	CameraRate	NumFrames	NumMarkers	Units	OrigDataRate	OrigDataStartFrame	OrigNumFrames
100	100	40	8	m	100	922	7372
Frame#	Time	torso_imu_offset_imu	pelvis_imu_offset_imu	tibia_r_imu_offset_imu	femur_r_imu_offset_imu	tibia_l_imu_offset_imu	femur_l_imu_offset_imu	toes_r_imu_offset_imu	toes_l_imu_offset_imu
				X1	Y1	Z1	X2	Y2	Z2	X3	Y3	Z3	X4	Y4	Z4	X5	Y5	Z5	X6	Y6	Z6	X7	Y7	Z7	X8		Y8	Z8	

922	9.21000000	-0.91667002	-0.17163050	0.16783154	-0.72138915	0.12068175	-0.60183913	-0.73400979	-0.34166032	-0.07956908	-0.84876967	-0.14961215	0.07834764	-0.49982131	0.61619527	0.26594308	-0.63103444	0.45983197	0.32340232	-0.60955610	0.00691987	-0.51694215	-0.85203861	-0.15386660	-0.15853541
923	9.22000000	-0.91788579	-0.17171786	0.17127409	-0.72420327	0.11638895	-0.60085133	-0.73043095	-0.35325859	-0.07570929	-0.84819630	-0.14822986	0.07933688	-0.48978506	0.62428032	0.26050947	-0.63680284	0.45926831	0.31844277	-0.61269245	-0.00269836	-0.50374465	-0.85240423	-0.15469668	-0.14473921
924	9.23000000	-0.91765303	-0.16965397	0.17435560	-0.72416337	0.11840201	-0.60201232	-0.72647327	-0.35859836	-0.06727837	-0.84297965	-0.15080791	0.08519040	-0.47743957	0.63336721	0.26111264	-0.63982253	0.46381281	0.31590228	-0.62339396	-0.01137304	-0.49093938	-0.85769381	-0.15361074	-0.12198472
925	9.24000000	-0.91348403	-0.17576721	0.16883260	-0.72212398	0.11859715	-0.60018376	-0.72406563	-0.36035230	-0.06146877	-0.84663931	-0.15714641	0.08749157	-0.47074326	0.64166050	0.25513891	-0.63758381	0.46460536	0.30775858	-0.63775634	-0.02301250	-0.47863564	-0.85700067	-0.15246252	-0.10553415
926	9.25000000	-0.91707217	-0.17681807	0.17034389	-0.71952735	0.11757870	-0.59901583	-0.72067304	-0.36769283	-0.05499578	-0.83860202	-0.16026846	0.09599881	-0.46801371	0.64731626	0.25055658	-0.63360436	0.46503158	0.30675617	-0.64052751	-0.03513910	-0.46671166	-0.85576685	-0.15157543	-0.07813633
927	9.26000000	-0.92173083	-0.17553800	0.16746396	-0.72349845	0.12056296	-0.59894062	-0.72524859	-0.37711899	-0.04723242	-0.83708651	-0.16708520	0.10383402	-0.45841354	0.65689860	0.24553287	-0.63872903	0.46874067	0.30508261	-0.64727182	-0.04354637	-0.46076072	-0.85606731	-0.15200823	-0.04375651
928	9.27000000	-0.91988096	-0.17913491	0.16258111	-0.72745385	0.12712699	-0.59904717	-0.72011612	-0.38236094	-0.03076176	-0.84046932	-0.17153349	0.10481083	-0.44637809	0.66900377	0.23954485	-0.64377574	0.47077899	0.30268966	-0.65318727	-0.05520844	-0.45087591	-0.85402649	-0.15585260	-0.01930285
929	9.28000000	-0.91851096	-0.18312176	0.16874337	-0.72841302	0.13242683	-0.59503860	-0.70983845	-0.39128904	-0.02598153	-0.83301949	-0.16991476	0.11811466	-0.43761368	0.67760523	0.23141371	-0.64159746	0.46780432	0.29830736	-0.66373851	-0.06590870	-0.44058660	-0.85180733	-0.15416337	0.00706523
930	9.29000000	-0.91800807	-0.18266859	0.16724131	-0.72961882	0.13265427	-0.59138551	-0.70993101	-0.40387255	-0.01197402	-0.82953604	-0.17228139	0.12375622	-0.42785569	0.69054056	0.22668214	-0.64580894	0.46678285	0.29490724	-0.66827657	-0.07169062	-0.42892189	-0.85208244	-0.14820722	0.03773525
931	9.30000000	-0.91514241	-0.17802586	0.16365065	-0.73031214	0.13896917	-0.58466723	-0.70610504	-0.41274853	0.00069936	-0.83579934	-0.17032383	0.12611405	-0.42036136	0.70143371	0.22044642	-0.64884040	0.46618024	0.28454604	-0.66891217	-0.08548255	-0.41741590	-0.84469134	-0.14986611	0.07511753
932	9.31000000	-0.91614968	-0.17890874	0.16501550	-0.72948829	0.14268873	-0.58153638	-0.69984377	-0.41733947	0.01212809	-0.82946311	-0.17713113	0.13215650	-0.40472145	0.70752083	0.20944594	-0.65319454	0.46351515	0.28028152	-0.67707575	-0.09100136	-0.40489088	-0.83967503	-0.15039127	0.11312633
933	9.32000000	-0.91843691	-0.18248790	0.16247077	-0.73118021	0.14303372	-0.57888377	-0.69959159	-0.42374050	0.02216891	-0.82967672	-0.18783726	0.13977190	-0.39038373	0.71330777	0.20235978	-0.66248135	0.46146113	0.26931941	-0.68066258	-0.09196612	-0.39897219	-0.82428959	-0.14017457	0.14837341
934	9.33000000	-0.91578994	-0.18596140	0.16129497	-0.73187433	0.14416446	-0.57847351	-0.69436461	-0.42912291	0.03328260	-0.82651541	-0.19075658	0.14586861	-0.37877059	0.72420299	0.19179322	-0.66547058	0.45822780	0.26322937	-0.68307565	-0.09544911	-0.39672490	-0.81468568	-0.13561374	0.18984049
935	9.34000000	-0.91741981	-0.18654516	0.16002917	-0.73422317	0.14588987	-0.58121218	-0.68848761	-0.43518047	0.03815053	-0.82039994	-0.19976929	0.15079227	-0.37022373	0.73672062	0.18511049	-0.66792154	0.45451158	0.25734969	-0.68346652	-0.10521547	-0.38385304	-0.80551746	-0.12646553	0.22962219
936	9.35000000	-0.91760965	-0.18443936	0.15634403	-0.73703694	0.14919847	-0.57778570	-0.68209689	-0.44558021	0.03653100	-0.81766199	-0.20955227	0.15463036	-0.35291735	0.73889230	0.18170704	-0.67851526	0.45204257	0.25282238	-0.68458565	-0.11254800	-0.38138196	-0.78914058	-0.11655084	0.27242132
937	9.36000000	-0.91694290	-0.18508792	0.15582816	-0.74206878	0.14771117	-0.57803768	-0.68293754	-0.44396541	0.04537254	-0.81709654	-0.22152323	0.15804234	-0.34004466	0.74690220	0.17297612	-0.68917373	0.44019951	0.24406638	-0.68550740	-0.11110774	-0.38047217	-0.77407288	-0.10809868	0.31524376
938	9.37000000	-0.91826005	-0.18574393	0.15095627	-0.73811599	0.14565093	-0.57641184	-0.67961669	-0.44475514	0.04929266	-0.80956664	-0.22620246	0.15683408	-0.32715281	0.75547473	0.16294919	-0.69407722	0.42971172	0.23270422	-0.69178871	-0.12015321	-0.37460640	-0.75861617	-0.10370818	0.34626044
939	9.38000000	-0.92054995	-0.19177961	0.15648581	-0.73531844	0.14941745	-0.57417961	-0.67818014	-0.45290995	0.04803465	-0.80849009	-0.23550694	0.16296978	-0.30803365	0.76187574	0.15541055	-0.69853459	0.42031341	0.22054382	-0.69420141	-0.12166921	-0.36877033	-0.74222564	-0.09020541	0.38053652
940	9.39000000	-0.92046673	-0.19248921	0.15635927	-0.73938553	0.15150215	-0.57898802	-0.67447117	-0.46072723	0.04651560	-0.80854347	-0.24533460	0.16821674	-0.29290332	0.77282044	0.15557117	-0.71071552	0.40685540	0.21450576	-0.69369028	-0.12178116	-0.36606490	-0.72015949	-0.07481444	0.41681395
941	9.40000000	-0.91627181	-0.19194638	0.15541373	-0.73444209	0.14912192	-0.57329588	-0.66999116	-0.47082559	0.04836938	-0.79736117	-0.25074239	0.15881310	-0.27793976	0.77555032	0.14797537	-0.71902135	0.40054607	0.21307093	-0.69800551	-0.12132085	-0.36281102	-0.70288624	-0.06271234	0.44325077
942	9.41000000	-0.91898375	-0.18815085	0.15684617	-0.73763681	0.14892837	-0.57663070	-0.66638066	-0.47735250	0.04936655	-0.78982292	-0.26512827	0.16480726	-0.26133188	0.77792691	0.13642178	-0.72720689	0.38787811	0.20658180	-0.69978757	-0.12422938	-0.36112305	-0.68569413	-0.04220596	0.47212404
943	9.42000000	-0.91806065	-0.18671309	0.15995975	-0.73891186	0.14831295	-0.58051840	-0.66292320	-0.47713450	0.04605727	-0.79268364	-0.27007102	0.16968435	-0.24863300	0.78955970	0.13729315	-0.74126780	0.37859172	0.20136636	-0.70120349	-0.12829502	-0.36188758	-0.66560284	-0.02738259	0.49926965
944	9.43000000	-0.91964066	-0.19296235	0.16680743	-0.73357956	0.15382052	-0.58018377	-0.65780471	-0.48460610	0.04628209	-0.78626741	-0.27683570	0.17275786	-0.23619867	0.79111022	0.12675341	-0.74579726	0.36338110	0.19669109	-0.70054462	-0.12899269	-0.35519921	-0.64936617	-0.01648055	0.52277079
945	9.44000000	-0.91883717	-0.19171643	0.16171483	-0.73680514	0.15188519	-0.57712716	-0.65883713	-0.48888163	0.04778753	-0.78051011	-0.28608326	0.17306146	-0.23042186	0.78838942	0.11867499	-0.74478689	0.35063689	0.19850938	-0.70245164	-0.12865538	-0.35240264	-0.62721448	0.00278070	0.53412387
946	9.45000000	-0.91659864	-0.18396676	0.16317689	-0.74328659	0.15002399	-0.58003213	-0.65895118	-0.48743990	0.04340242	-0.78017099	-0.29794039	0.17156787	-0.22212636	0.79490937	0.12219051	-0.75379663	0.33659568	0.20057643	-0.70580763	-0.12622306	-0.34821093	-0.62644006	0.02488514	0.53870082
947	9.46000000	-0.91883143	-0.18495342	0.16569496	-0.74120573	0.15270962	-0.57908100	-0.65495529	-0.49526869	0.04798856	-0.77252464	-0.30614518	0.16854409	-0.21125796	0.79717925	0.12388248	-0.76458189	0.32243184	0.19884572	-0.70374885	-0.12880191	-0.34101642	-0.63749904	0.04623310	0.53289797
948	9.47000000	-0.91835871	-0.18504766	0.17265069	-0.74003188	0.15941073	-0.57963514	-0.65034246	-0.49891410	0.04867548	-0.76771911	-0.31073749	0.16871301	-0.20791596	0.80117973	0.12559025	-0.76889217	0.31096693	0.19984813	-0.70433944	-0.12626602	-0.34598559	-0.64791256	0.06010794	0.51792467
949	9.48000000	-0.91923904	-0.17911224	0.17883710	-0.74049280	0.16063687	-0.58149247	-0.65386287	-0.49990104	0.03731901	-0.76513631	-0.32351813	0.16578750	-0.19812802	0.80319388	0.11764154	-0.76919277	0.29495734	0.20179739	-0.70786742	-0.12379606	-0.34833541	-0.66373513	0.07229344	0.49837016
950	9.49000000	-0.92257024	-0.17898643	0.17575880	-0.73926033	0.15894349	-0.58354009	-0.64604820	-0.50870484	0.03538478	-0.76107775	-0.33094768	0.16725060	-0.19029827	0.80465295	0.10586040	-0.77373440	0.28451553	0.19704835	-0.70689177	-0.12340667	-0.34859347	-0.67803099	0.07780758	0.47481118
951	9.50000000	-0.91983316	-0.18185410	0.17854260	-0.73840377	0.15846831	-0.57765271	-0.64865233	-0.50923416	0.02858365	-0.75751161	-0.34371118	0.16952577	-0.19500001	0.80437779	0.09864803	-0.77866499	0.27589032	0.19621510	-0.70835617	-0.12173119	-0.34575445	-0.69543966	0.08659759	0.45951519
952	9.51000000	-0.91299583	-0.17821043	0.17949284	-0.74156857	0.16113319	-0.58427744	-0.64728808	-0.51417817	0.02479487	-0.75159514	-0.35288366	0.16359051	-0.20470203	0.80449391	0.09222393	-0.78457270	0.26635885	0.19659669	-0.70880218	-0.12251040	-0.34105862	-0.71062096	0.09468517	0.43948250
953	9.52000000	-0.91675954	-0.17843811	0.17702396	-0.74170440	0.16142213	-0.58733170	-0.64135581	-0.52015636	0.02050052	-0.74948391	-0.36030411	0.15648261	-0.21342346	0.80416395	0.08951828	-0.78812843	0.25037586	0.20784586	-0.70720471	-0.12038162	-0.34216423	-0.71927605	0.09163545	0.41707241
954	9.53000000	-0.91754449	-0.17892051	0.18241596	-0.73951469	0.15600907	-0.57931356	-0.64439024	-0.51997205	0.01529714	-0.74461291	-0.36607087	0.15289483	-0.22255162	0.79933903	0.08761004	-0.79201404	0.23921495	0.21061739	-0.70698831	-0.11791733	-0.34094147	-0.74144118	0.09121228	0.39089373
955	9.54000000	-0.91378129	-0.17806446	0.18347955	-0.74145206	0.15780476	-0.57736822	-0.64263933	-0.52595876	0.01433074	-0.74482271	-0.37282007	0.14535182	-0.23599227	0.78957907	0.09078768	-0.79635437	0.22619811	0.20021940	-0.70415924	-0.12147453	-0.33999282	-0.75399925	0.08385790	0.35544087
956	9.55000000	-0.91565774	-0.17984573	0.18618934	-0.74073369	0.15439830	-0.58154518	-0.64068524	-0.52709039	0.01402915	-0.74021526	-0.38228400	0.13735008	-0.24950902	0.78844361	0.08957552	-0.79828108	0.21304569	0.20482318	-0.70319039	-0.11959418	-0.34382277	-0.76104889	0.07192416	0.32825394
957	9.56000000	-0.91573718	-0.18033086	0.18878489	-0.73713429	0.15657513	-0.57956482	-0.63722346	-0.53012085	0.00558342	-0.73455880	-0.38647905	0.13941208	-0.26376054	0.79005452	0.09419487	-0.79936053	0.20467749	0.20816743	-0.70292644	-0.11510804	-0.34554208	-0.78222710	0.05742172	0.30160939
958	9.57000000	-0.91438894	-0.18194290	0.18776193	-0.73994749	0.16383987	-0.57880108	-0.62924916	-0.53424730	0.00245192	-0.73540695	-0.38938798	0.13313911	-0.27808439	0.78056371	0.10002109	-0.80360569	0.19218604	0.21000518	-0.70553080	-0.11564553	-0.34381047	-0.79723235	0.03729715	0.27254116
959	9.58000000	-0.91289863	-0.18119671	0.18855368	-0.74324968	0.16017106	-0.58323683	-0.62807551	-0.53928041	0.00088213	-0.73365173	-0.39612568	0.13129003	-0.29486449	0.77425546	0.10479902	-0.80312645	0.17953766	0.20965819	-0.70535145	-0.11752053	-0.34360190	-0.80338838	0.01686007	0.23654595
960	9.59000000	-0.91542129	-0.17799155	0.19300206	-0.74048352	0.16301404	-0.58419778	-0.62803099	-0.54553104	-0.00728700	-0.72999317	-0.39821872	0.12434153	-0.32018447	0.76087578	0.11319647	-0.80639458	0.16446234	0.21480758	-0.70121167	-0.11986478	-0.34601161	-0.80943583	-0.00033261	0.19784993
961	9.60000000	-0.92162574	-0.18018392	0.19221292	-0.73893990	0.16489598	-0.58043513	-0.61907917	-0.55323356	-0.01597497	-0.73086560	-0.40166717	0.11759320	-0.34066303	0.74722891	0.11133969	-0.80748066	0.15421182	0.21514890	-0.70306410	-0.11629001	-0.34676835	-0.80949737	-0.01645668	0.16724745
